<svg xmlns="http://www.w3.org/2000/svg" width="19" height="19" viewBox="0 0 19 19" fill="none">
<path d="M18.0499 9.35713C18.0499 13.9576 14.2919 17.6869 9.65537 17.6869C8.23702 17.6892 6.84109 17.3326 5.59754 16.6505L0.949951 18.1273L2.4652 13.6582C1.67556 12.3627 1.2587 10.8743 1.2606 9.35713C1.2606 4.75666 5.01899 1.02734 9.65556 1.02734C14.2921 1.02734 18.0499 4.75666 18.0499 9.35713ZM9.65537 2.35392C5.76341 2.35392 2.59763 5.49557 2.59763 9.35713C2.59763 10.8895 3.09714 12.3086 3.94207 13.4632L3.06028 16.0639L5.77253 15.2019C6.92564 15.9594 8.27559 16.3622 9.65537 16.3603C13.547 16.3603 16.7131 13.2189 16.7131 9.35732C16.7131 5.49576 13.5471 2.35392 9.65537 2.35392ZM13.8945 11.2756C13.8426 11.1906 13.7056 11.1393 13.5 11.0373C13.2941 10.9353 12.2821 10.4411 12.094 10.3733C11.9052 10.3052 11.7678 10.2708 11.6306 10.4753C11.4936 10.6797 11.0992 11.1393 10.9789 11.2756C10.859 11.412 10.7391 11.4291 10.5332 11.3269C10.3276 11.2248 9.66449 11.0092 8.87846 10.3136C8.26685 9.77247 7.85379 9.10443 7.73371 8.8998C7.61382 8.69555 7.72117 8.58516 7.82396 8.48351C7.91668 8.39193 8.02992 8.24506 8.13271 8.12593C8.23588 8.00661 8.27008 7.92168 8.33829 7.78526C8.40726 7.64903 8.37287 7.5299 8.32119 7.42749C8.26989 7.32546 7.85797 6.32074 7.68659 5.91186C7.51521 5.50336 7.34402 5.57138 7.22375 5.57138C7.10386 5.57138 6.96649 5.55428 6.82931 5.55428C6.69213 5.55428 6.46907 5.60539 6.2804 5.80964C6.09192 6.01408 5.56049 6.50808 5.56049 7.51261C5.56049 8.51733 6.2975 9.48804 6.40067 9.62408C6.50346 9.76012 7.82377 11.8889 9.91567 12.7065C12.0079 13.5238 12.0079 13.2512 12.3853 13.2172C12.7622 13.1832 13.6024 12.7234 13.7744 12.2467C13.9456 11.7696 13.9456 11.3607 13.8945 11.2756Z" fill="#222222"/>
</svg>